<?xml version="1.0" encoding="UTF-8" standalone="no"?>
<!-- Generator: Adobe Illustrator 16.0.0, SVG Export Plug-In . SVG Version: 6.00 Build 0)  -->

<svg
   version="1.1"
   id="Layer_1"
   x="0px"
   y="0px"
   width="113"
   height="113"
   viewBox="0 0 113 113"
   enable-background="new 0 0 115.333 114"
   xml:space="preserve"
   sodipodi:docname="logo.svg"
   inkscape:version="0.92.1 r15371"
   xmlns:inkscape="http://www.inkscape.org/namespaces/inkscape"
   xmlns:sodipodi="http://sodipodi.sourceforge.net/DTD/sodipodi-0.dtd"
   xmlns="http://www.w3.org/2000/svg"
   xmlns:svg="http://www.w3.org/2000/svg"
   xmlns:rdf="http://www.w3.org/1999/02/22-rdf-syntax-ns#"
   xmlns:cc="http://creativecommons.org/ns#"
   xmlns:dc="http://purl.org/dc/elements/1.1/"><metadata
     id="metadata4495"><rdf:RDF><cc:Work
         rdf:about=""><dc:format>image/svg+xml</dc:format><dc:type
           rdf:resource="http://purl.org/dc/dcmitype/StillImage" /><dc:title /></cc:Work></rdf:RDF></metadata><defs
     id="defs4493" /><sodipodi:namedview
     pagecolor="#ffffff"
     bordercolor="#666666"
     borderopacity="1"
     objecttolerance="10"
     gridtolerance="10"
     guidetolerance="10"
     inkscape:pageopacity="0"
     inkscape:pageshadow="2"
     inkscape:window-width="1484"
     inkscape:window-height="886"
     id="namedview4491"
     showgrid="false"
     inkscape:zoom="5.2784901"
     inkscape:cx="60.603667"
     inkscape:cy="60.329656"
     inkscape:window-x="54"
     inkscape:window-y="7"
     inkscape:window-maximized="0"
     inkscape:current-layer="Layer_1"
     inkscape:showpageshadow="2"
     inkscape:pagecheckerboard="0"
     inkscape:deskcolor="#d1d1d1" /><path
     style="fill:#e6522c;fill-opacity:1;stroke-width:0.997078"
     inkscape:connector-curvature="0"
     id="path4486"
     d="M 56.500499,0 C 25.297451,0 0,25.294906 0,56.499501 0,87.703099 25.297451,113 56.500499,113 87.703546,113 113,87.703099 113,56.499501 113,25.294906 87.702549,0 56.500499,0 Z m 0,105.74525 c -8.877838,0 -16.075627,-5.93063 -16.075627,-13.244204 h 32.151253 c 0,7.312574 -7.197788,13.244204 -16.075626,13.244204 z M 83.052253,88.114893 H 29.945752 V 78.485102 H 83.05325 v 9.629791 z M 82.861815,73.528619 H 30.097306 c -0.175483,-0.202407 -0.354954,-0.401822 -0.524455,-0.607221 -5.43598,-6.600665 -6.716207,-10.046571 -7.959543,-13.558284 -0.02094,-0.115662 6.591575,1.351042 11.280756,2.405952 0,0 2.41289,0.558364 5.940494,1.201481 -3.387018,-3.97037 -5.398092,-9.017586 -5.398092,-14.176475 0,-11.325824 8.686402,-21.222834 5.552637,-29.222402 3.050011,0.248273 6.312398,6.437145 6.532749,16.1138 3.242445,-4.480875 4.599446,-12.663905 4.599446,-17.681208 0,-5.194783 3.422912,-11.2291078 6.846822,-11.4355032 -3.052006,5.0302652 0.79067,9.3426332 4.206604,20.0402982 1.281224,4.018229 1.117707,10.780422 2.106792,15.06886 0.328033,-8.90691 1.85952,-21.902843 7.509869,-26.389699 -2.492655,5.650448 0.368913,12.720738 2.326145,16.119781 3.157694,5.483937 5.072053,9.638766 5.072053,17.496749 0,5.268567 -1.945267,10.229037 -5.226598,14.106679 3.731005,-0.69995 6.307413,-1.331102 6.307413,-1.331102 L 91.386692,59.31625 c 9.91e-4,-9.91e-4 -1.759813,7.239793 -8.524877,14.212369 z" /></svg>
